<mxfile host="app.diagrams.net" modified="2024-04-18T12:48:11.119Z" agent="Mozilla/5.0 (Windows NT 10.0; Win64; x64) AppleWebKit/537.36 (KHTML, like Gecko) Chrome/124.0.0.0 Safari/537.36" etag="BxR9g17JymM1-rEugMc2" version="23.1.7" type="github">
  <diagram name="第 1 页" id="qnsRu85hqL5BaTXYxZI0">
    <mxGraphModel dx="1050" dy="557" grid="1" gridSize="10" guides="1" tooltips="1" connect="1" arrows="1" fold="1" page="1" pageScale="1" pageWidth="827" pageHeight="1169" math="0" shadow="0">
      <root>
        <mxCell id="0" />
        <mxCell id="1" parent="0" />
        <mxCell id="woRqSLo6KzbHQ52F7EDN-5" style="edgeStyle=orthogonalEdgeStyle;rounded=0;orthogonalLoop=1;jettySize=auto;html=1;exitX=1;exitY=0.5;exitDx=0;exitDy=0;entryX=0;entryY=0.5;entryDx=0;entryDy=0;" edge="1" parent="1" source="woRqSLo6KzbHQ52F7EDN-4" target="woRqSLo6KzbHQ52F7EDN-7">
          <mxGeometry relative="1" as="geometry">
            <mxPoint x="414" y="155" as="targetPoint" />
          </mxGeometry>
        </mxCell>
        <mxCell id="woRqSLo6KzbHQ52F7EDN-4" value="" style="rounded=0;whiteSpace=wrap;html=1;" vertex="1" parent="1">
          <mxGeometry x="230" y="90" width="120" height="130" as="geometry" />
        </mxCell>
        <mxCell id="woRqSLo6KzbHQ52F7EDN-1" value="湿盛" style="ellipse;whiteSpace=wrap;html=1;fontSize=14;" vertex="1" parent="1">
          <mxGeometry x="250" y="110" width="80" height="40" as="geometry" />
        </mxCell>
        <mxCell id="woRqSLo6KzbHQ52F7EDN-2" value="肝郁" style="ellipse;whiteSpace=wrap;html=1;fontSize=14;" vertex="1" parent="1">
          <mxGeometry x="250" y="170" width="80" height="40" as="geometry" />
        </mxCell>
        <mxCell id="woRqSLo6KzbHQ52F7EDN-6" value="" style="group" vertex="1" connectable="0" parent="1">
          <mxGeometry x="420" y="135" width="80" height="50" as="geometry" />
        </mxCell>
        <mxCell id="woRqSLo6KzbHQ52F7EDN-7" value="脾伤" style="ellipse;whiteSpace=wrap;html=1;fontSize=14;" vertex="1" parent="woRqSLo6KzbHQ52F7EDN-6">
          <mxGeometry width="80" height="40" as="geometry" />
        </mxCell>
        <mxCell id="woRqSLo6KzbHQ52F7EDN-11" value="不能化荣血而为经水" style="rounded=1;whiteSpace=wrap;html=1;fillColor=#f8cecc;strokeColor=#b85450;" vertex="1" parent="1">
          <mxGeometry x="490" y="140" width="120" height="30" as="geometry" />
        </mxCell>
        <mxCell id="woRqSLo6KzbHQ52F7EDN-12" value="" style="endArrow=classic;html=1;rounded=0;exitX=0.5;exitY=1;exitDx=0;exitDy=0;entryX=0.5;entryY=0;entryDx=0;entryDy=0;" edge="1" parent="1" source="woRqSLo6KzbHQ52F7EDN-7" target="woRqSLo6KzbHQ52F7EDN-13">
          <mxGeometry width="50" height="50" relative="1" as="geometry">
            <mxPoint x="530" y="310" as="sourcePoint" />
            <mxPoint x="460" y="330" as="targetPoint" />
          </mxGeometry>
        </mxCell>
        <mxCell id="woRqSLo6KzbHQ52F7EDN-13" value="阴门" style="ellipse;whiteSpace=wrap;html=1;fontSize=14;" vertex="1" parent="1">
          <mxGeometry x="420" y="320" width="80" height="40" as="geometry" />
        </mxCell>
        <mxCell id="woRqSLo6KzbHQ52F7EDN-14" value="白滑之物(白带)" style="rounded=1;whiteSpace=wrap;html=1;fillColor=#f8cecc;strokeColor=#b85450;" vertex="1" parent="1">
          <mxGeometry x="490" y="325" width="120" height="30" as="geometry" />
        </mxCell>
        <mxCell id="woRqSLo6KzbHQ52F7EDN-15" value="&lt;b&gt;&lt;font style=&quot;font-size: 14px;&quot;&gt;治法&lt;/font&gt;&lt;/b&gt;" style="swimlane;fontStyle=0;childLayout=stackLayout;horizontal=1;startSize=30;horizontalStack=0;resizeParent=1;resizeParentMax=0;resizeLast=0;collapsible=1;marginBottom=0;whiteSpace=wrap;html=1;" vertex="1" parent="1">
          <mxGeometry x="640" y="90" width="140" height="90" as="geometry" />
        </mxCell>
        <mxCell id="woRqSLo6KzbHQ52F7EDN-16" value="大补脾胃之气" style="text;strokeColor=none;fillColor=none;align=left;verticalAlign=middle;spacingLeft=4;spacingRight=4;overflow=hidden;points=[[0,0.5],[1,0.5]];portConstraint=eastwest;rotatable=0;whiteSpace=wrap;html=1;fontSize=14;" vertex="1" parent="woRqSLo6KzbHQ52F7EDN-15">
          <mxGeometry y="30" width="140" height="30" as="geometry" />
        </mxCell>
        <mxCell id="woRqSLo6KzbHQ52F7EDN-17" value="稍佐疏肝之品" style="text;strokeColor=none;fillColor=none;align=left;verticalAlign=middle;spacingLeft=4;spacingRight=4;overflow=hidden;points=[[0,0.5],[1,0.5]];portConstraint=eastwest;rotatable=0;whiteSpace=wrap;html=1;fontSize=14;" vertex="1" parent="woRqSLo6KzbHQ52F7EDN-15">
          <mxGeometry y="60" width="140" height="30" as="geometry" />
        </mxCell>
      </root>
    </mxGraphModel>
  </diagram>
</mxfile>
